<?xml version="1.0" encoding="utf-8"?>
<!-- Generator: Adobe Illustrator 22.0.1, SVG Export Plug-In . SVG Version: 6.00 Build 0)  -->
<svg version="1.1" id="Layer_1" xmlns="http://www.w3.org/2000/svg" xmlns:xlink="http://www.w3.org/1999/xlink" x="0px" y="0px"
	 viewBox="0 0 30 30" style="enable-background:new 0 0 30 30;" xml:space="preserve">
<g>
	<path d="M27,23V1H7C4.8,1,3,2.8,3,5v20c0,2.2,1.8,4,4,4h20v-2h-1v-4H27z M25,3v18H9V3 M5,5c0-1.1,0.9-2,2-2v18
		c-0.7,0-1.4,0.2-2,0.5V5z M24,27H7c-1.1,0-2-0.9-2-2s0.9-2,2-2h17V27z"/>
	<g>
		<path d="M18.5,12.6c0.3,0,0.6-0.3,0.6-0.6s-0.3-0.6-0.6-0.6h-3.3c-0.3,0-0.6,0.3-0.6,0.6s0.3,0.6,0.6,0.6l0,0H18.5L18.5,12.6z"/>
		<path d="M18.9,9.1L18.9,9.1L18.9,9.1L18.9,9.1h-1.8c-0.3,0-0.6,0.3-0.6,0.6c0,0.2,0.1,0.4,0.3,0.5c0.1,0,0.2,0.1,0.3,0.1h1.8l0,0
			c1,0,1.7,0.8,1.7,1.7s-0.8,1.7-1.7,1.7l0,0h-1.8c-0.3,0-0.6,0.3-0.6,0.6s0.3,0.6,0.6,0.6h1.8l0,0l0,0l0,0c1.6,0,2.9-1.3,2.9-2.9
			C21.8,10.4,20.5,9.1,18.9,9.1z"/>
		<path d="M15,10.3c0.3,0,0.6-0.3,0.6-0.6S15.3,9.1,15,9.1h-1.7c-0.3,0-0.6,0.3-0.6,0.6s0.3,0.6,0.6,0.6l0,0H15z"/>
	</g>
</g>
</svg>
