<svg xmlns="http://www.w3.org/2000/svg" viewBox="0 0 30 30"><path d="M27 23V1H7C4.8 1 3 2.8 3 5v20c0 2.2 1.8 4 4 4h20v-2h-1v-4h1zM25 3v18H9V3M5 5c0-1.1.9-2 2-2v18c-.7 0-1.4.2-2 .5V5zm19 22H7c-1.1 0-2-.9-2-2s.9-2 2-2h17v4z"/><path d="M18.5 12.6c.3 0 .6-.3.6-.6s-.3-.6-.6-.6h-3.3c-.3 0-.6.3-.6.6s.3.6.6.6h3.3z"/><path d="M18.9 9.1h-1.8c-.3 0-.6.3-.6.6 0 .2.1.4.3.5.1 0 .2.1.3.1h1.8c1 0 1.7.8 1.7 1.7s-.8 1.7-1.7 1.7h-1.8c-.3 0-.6.3-.6.6s.3.6.6.6h1.8c1.6 0 2.9-1.3 2.9-2.9 0-1.6-1.3-2.9-2.9-2.9zM15 10.3c.3 0 .6-.3.6-.6s-.3-.6-.6-.6h-1.7c-.3 0-.6.3-.6.6s.3.6.6.6H15z"/></svg>