<?xml version="1.0" encoding="UTF-8"?>
<svg width="17px" height="16px" viewBox="0 0 17 16" version="1.1" xmlns="http://www.w3.org/2000/svg" xmlns:xlink="http://www.w3.org/1999/xlink">
    <title>search</title>
    <defs></defs>
    <g id="Page-1" stroke="none" stroke-width="1" fill="none" fill-rule="evenodd" opacity="0.247339221">
        <g id="Content-view" transform="translate(-312.000000, -112.000000)" fill="#000000">
            <path d="M328.816406,127.195312 L328.011719,128 L324.097656,124.09375 C322.902344,125.101562 321.363281,125.710938 319.675781,125.710938 C315.886719,125.710938 312.816406,122.640625 312.816406,118.859375 C312.816406,115.070312 315.886719,112 319.675781,112 C323.457031,112 326.527344,115.070312 326.527344,118.859375 C326.527344,120.546875 325.917969,122.085938 324.910156,123.28125 L328.816406,127.195312 Z M319.675781,124.570312 C322.824219,124.570312 325.386719,122.007812 325.386719,118.859375 C325.386719,115.703125 322.824219,113.140625 319.675781,113.140625 C316.519531,113.140625 313.957031,115.703125 313.957031,118.859375 C313.957031,122.007812 316.519531,124.570312 319.675781,124.570312 Z" id="search"></path>
        </g>
    </g>
</svg>