<?xml version="1.0" encoding="utf-8"?>
<!-- Generator: Adobe Illustrator 22.0.1, SVG Export Plug-In . SVG Version: 6.00 Build 0)  -->
<svg version="1.1" id="Layer_1" xmlns="http://www.w3.org/2000/svg" xmlns:xlink="http://www.w3.org/1999/xlink" x="0px" y="0px"
	 viewBox="0 0 116.2 157.3" style="enable-background:new 0 0 116.2 157.3;" xml:space="preserve">
<style type="text/css">
	.st0{fill:#F1F1F1;}
</style>
<title>Artboard 40</title>
<g>
	<g>
		<defs>
			<path id="SVGID_11_" d="M110.7,22L75.2,1.5c-3.4-2-7.6-2-11,0L5.5,35.4C2.1,37.3,0,41,0,44.9l0,67.4c0,3.9,2.1,7.6,5.5,9.5
				l58.8,33.9c3.4,2,7.6,2,11,0l35.5-20.4c3.4-2,5.5-5.6,5.5-9.5l0-94.4C116.2,27.6,114.2,23.9,110.7,22z M93,118.8L93,118.8
				l-23.1,13.4l-0.1-0.1v0v-26.6l-23,13.3l-0.2-0.1v0l0,0l-23.2-13.4V52l46.5-26.8h0L93,38.6V118.8z"/>
		</defs>
		<use xlink:href="#SVGID_11_"  style="overflow:visible;fill:#F1F1F1;"/>
		<clipPath id="SVGID_1_">
			<use xlink:href="#SVGID_11_"  style="overflow:visible;"/>
		</clipPath>
	</g>
	<polygon class="st0" points="46.7,65.3 46.7,92.2 70,78.8 70,51.9 46.7,65.3 	"/>
</g>
</svg>
