<svg id="Layer_1" data-name="Layer 1" xmlns="http://www.w3.org/2000/svg" viewBox="0 0 139.07 157.31"><defs><style>.cls-1{fill:#f1f1f1;}</style></defs><title>Artboard 41</title><path class="cls-1" d="M75.54,155.7l57.53-33.29a12,12,0,0,0,6-10.39V18.49a12,12,0,0,0-6-10.39L121.83,1.61a12,12,0,0,0-12,0L75.55,21.48a12,12,0,0,1-12,0L29.26,1.62a12,12,0,0,0-12,0L6,8.1A12,12,0,0,0,0,18.49V112a12,12,0,0,0,6,10.39L63.53,155.7A12,12,0,0,0,75.54,155.7Zm40.28-50.18L69.53,132.36,23.25,105.52V25l23,13.42V92.1l23.25,13.42h0l.07,0,.07,0h0L92.86,92.1V38.41l23-13.42Z"/></svg>