<svg id="Layer_1" data-name="Layer 1" xmlns="http://www.w3.org/2000/svg" viewBox="0 0 116.26 157.69"><defs><style>.cls-1{fill:#f6f6f6;}</style></defs><title>Artboard 42</title><path class="cls-1" d="M64.25,1.47,5.5,35.39A11,11,0,0,0,0,44.92v41a11,11,0,0,0,5.5,9.53l12.25,7.07a11,11,0,0,1,5.5,9.53v14.14a11,11,0,0,0,5.5,9.53l35.5,20.5c3.4,2,7,2,11,0L88,148.84a10,10,0,0,0,5-8.66V71.77a11,11,0,0,1,5.5-9.53l12.25-7.07a11,11,0,0,0,5.5-9.53V31.5a11,11,0,0,0-5.5-9.53L75.25,1.47A11,11,0,0,0,64.25,1.47ZM93,38.57,69.76,52v80.54h0L46.5,119.11V65.42L23.25,78.84V52L46.5,38.57,69.75,25.15,93,38.57h0Z"/></svg>