<svg id="Layer_1" data-name="Layer 1" xmlns="http://www.w3.org/2000/svg" viewBox="0 0 139.29 130.82"><defs><style>.cls-1{fill:#f1f1f1;}</style></defs><title>Artboard 38</title><path class="cls-1" d="M133.81,22,98.51,1.48a11,11,0,0,0-11,0L69.75,11.71h-.21L51.8,1.47a11,11,0,0,0-11,0L5.48,22A11,11,0,0,0,0,31.47V99.33a11,11,0,0,0,5.5,9.53L41,129.35a11,11,0,0,0,11,0L64.65,122a10,10,0,0,1,10,0l12.65,7.3a11,11,0,0,0,11,0l35.5-20.5a11,11,0,0,0,5.5-9.53V31.47A11,11,0,0,0,133.81,22ZM116,92.25,92.9,105.62,69.75,92.25,46.5,105.68h0L23.25,92.25V38.56L46.48,25.15l0,53.68L69.75,65.41h0L93,78.83V25.26l23,13.3Z"/></svg>