<svg id="Layer_1" data-name="Layer 1" xmlns="http://www.w3.org/2000/svg" viewBox="0 0 116.25 157.68"><defs><style>.cls-1{fill:#f1f1f1;}</style></defs><title>Artboard 44</title><path class="cls-1" d="M75.26,115.92l35.48-20.49a11,11,0,0,0,5.5-9.53v-41a11,11,0,0,0-5.5-9.53L52,1.47a11,11,0,0,0-11,0L5.5,22A11,11,0,0,0,0,31.5l0,94.69a11,11,0,0,0,5.5,9.52L41,156.2a11,11,0,0,0,11,0l12.25-7.07a11,11,0,0,0,5.5-9.53V125.46A11,11,0,0,1,75.26,115.92ZM46.52,132.53,23.27,119.11l0-80.54L46.5,25.15,93,52V78.84h0L46.5,105.69h0Z"/><polygon class="cls-1" points="46.52 51.99 46.52 78.84 69.77 65.42 46.52 51.99"/></svg>