<svg id="Layer_1" data-name="Layer 1" xmlns="http://www.w3.org/2000/svg" viewBox="0 0 116.25 144.25"><defs><style>.cls-1{fill:#f1f1f1;}</style></defs><title>Artboard 40</title><path class="cls-1" d="M64.25,1.47,5.5,35.39A11,11,0,0,0,0,44.92v67.84a11,11,0,0,0,5.5,9.53L41,142.78a11,11,0,0,0,11,0l12.25-7.07a11,11,0,0,1,11,0l12.25,7.07a11,11,0,0,0,11,0l12.25-7.07a11,11,0,0,0,5.5-9.53V31.5a11,11,0,0,0-5.5-9.53L75.25,1.47A11,11,0,0,0,64.25,1.47ZM93,119.11,69.75,105.69V78.84L46.5,92.26v26.85L23.25,105.69V52L46.5,38.57,69.75,25.14,93,38.57Z"/><polygon class="cls-1" points="69.75 78.84 69.75 51.99 46.5 65.42 69.75 78.84"/></svg>